<svg width="1441" height="84" viewBox="0 0 1441 84" fill="none" xmlns="http://www.w3.org/2000/svg">
<path d="M1435.37 67.2392C1436.86 67.1523 1438.19 65.7772 1440.06 65.5852L1440 0H0.039641L0.039641 80.417C-0.229608 81.0073 0.876357 81.4722 3.24705 81.7756C7.3267 82.2842 11.5125 82.4022 15.9157 82.2519C19.3833 82.136 22.7077 82.3679 26.0892 82.8094C28.4599 83.1191 31.6325 82.8639 34.4024 82.7304C35.5765 82.6751 36.6378 82.3674 37.6881 82.771C37.7987 82.8131 38.0009 82.8482 38.1662 82.8588C40.7187 82.9935 43.2535 83.1901 45.8234 83.238C48.1914 83.2756 50.5761 83.1584 52.9616 83.1092C53.2552 83.1062 53.6035 83.0655 53.8608 83.1C58.0138 83.6079 62.178 83.4044 66.4328 83.0949C68.5663 82.94 70.4705 82.6634 72.4382 82.3776L72.5736 82.3579C73.8747 82.1652 75.5271 82.2287 77.0321 82.2256C78.3352 82.2246 79.6949 82.3839 80.6441 81.8732C80.8265 81.7662 81.5053 81.7345 81.964 81.7236C84.9915 81.6432 88.1638 81.3756 91.0289 81.5689C94.1695 81.7779 96.92 81.5333 99.7993 81.3245C100.019 81.3098 100.423 81.3181 100.478 81.2742C101.462 80.5962 103.117 80.8885 104.621 80.8484C105.704 80.8187 106.747 80.5545 107.848 80.4937C111.37 80.3092 114.762 80.0271 118.079 79.5169C119.564 79.3038 121.474 79.4636 123.162 79.3968C124.262 79.3546 125.344 79.2136 126.425 79.0912C127.929 78.9212 129.432 78.7389 130.917 78.5567L131.073 78.5378C135.737 77.9756 140.626 77.3861 145.046 78.3439C147.806 78.9402 150.814 78.8043 153.607 79.1282C154.563 79.2421 155.882 79.0739 157.001 78.9759C160.063 78.7033 162.981 78.6425 165.922 79.1071C166.951 79.2697 168.31 79.2806 169.502 79.2498C172.328 79.1837 174.972 79.2618 177.655 79.6177C179.585 79.8762 181.97 79.7529 184.063 79.9108C187.168 80.1449 190.212 79.9591 193.276 79.8349C193.698 79.8182 194.139 79.8446 194.543 79.8714C196.067 79.9671 197.48 79.9094 198.595 79.4898C199.601 79.1146 200.702 79.1157 202.079 79.2067C205.238 79.4155 208.433 79.5498 211.61 79.7089C211.903 79.7245 212.289 79.7391 212.509 79.6935C215.219 79.0968 217.812 79.5774 219.652 80.0162C221.602 80.4847 223.676 80.5501 225.734 80.7393C226.726 80.828 227.881 80.742 228.964 80.7247C230.652 80.695 232.341 80.6963 234.01 80.605L234.082 80.6011C235.351 80.5332 236.834 80.4538 237.75 80.1956C239.488 79.7016 241.361 79.8061 243.251 79.762C245.875 79.698 248.48 79.5538 251.104 79.5393C252.444 79.5318 253.786 79.7159 255.108 79.8446C255.825 79.9177 256.578 80.0151 257.186 80.1635C258.345 80.4361 259.466 80.6039 260.821 80.2746C260.931 80.2488 261.206 80.2707 261.335 80.3003C263.689 80.808 265.891 80.7298 268.53 80.3255C269.684 80.1529 271.67 80.5469 273.177 80.7479C274.409 80.9147 275.495 81.2004 276.69 81.3984C277.719 81.5734 278.804 81.7416 279.924 81.8353C280.549 81.8845 281.337 81.7528 282.016 81.7706C284.77 81.8475 287.505 81.9617 290.241 82.045C290.571 82.054 290.975 82.0127 291.268 81.9541C293.063 81.577 294.934 81.564 296.936 81.6486C299.543 81.758 302.168 81.8053 304.775 81.859C305.491 81.8764 306.224 81.7637 306.94 81.7873C308.041 81.8255 309.454 81.7986 310.136 82.0143C311.83 82.5474 313.595 82.857 315.979 82.7337C317.759 82.6474 319.502 82.5986 321.139 82.9529C322.739 83.3014 324.241 83.0324 325.725 82.7451C326.128 82.6668 326.623 82.6246 327.082 82.6137C328.788 82.5591 330.587 82.6211 332.219 82.4622C333.851 82.3032 335.209 82.3078 336.534 82.622C337.877 82.9422 339.199 82.9782 340.793 82.7268C343.01 82.3763 345.246 82.0813 347.8 82.352C348.572 82.4368 350.112 82.3097 350.514 82.1077C351.39 81.6659 352.402 81.8472 353.447 81.8056C354.842 81.748 356.217 81.5979 357.629 81.5215C358.454 81.476 359.317 81.5042 360.161 81.4832C360.675 81.4718 361.428 81.495 361.665 81.3936C363 80.8357 364.616 80.9738 366.196 81.1246C367.298 81.2308 368.031 81.0934 369.039 80.9346C371.402 80.5579 373.913 80.1611 376.445 80.0672C380.151 79.9364 383.934 80.1512 387.64 80.039C389.915 79.9724 392.113 79.5665 394.35 79.3148C395.083 79.2269 395.816 79.1575 396.55 79.0758C397.87 78.9324 399.19 78.7828 400.51 78.6456C403.26 78.3639 405.973 78.1134 408.894 78.3494C414.239 78.7832 419.621 79.1672 425.232 78.7201C425.966 78.6631 426.975 78.6404 427.509 78.7648C429.036 79.114 430.687 79.1156 432.412 79.0856C432.889 79.0807 433.385 79.1004 433.863 79.1326C436.213 79.2878 438.546 79.4618 440.915 79.5984C441.539 79.6353 442.255 79.5785 442.878 79.5164C444.583 79.3443 446.27 79.1477 447.938 78.9513C449.129 78.8092 450.487 78.7334 451.439 78.4887C453.928 77.8447 455.988 78.2875 458.249 78.5735C459.811 78.7678 461.556 78.9231 463.207 78.9C465.171 78.8737 467.114 78.6311 469.058 78.4813C469.241 78.4671 469.443 78.4527 469.608 78.4633C472.786 78.6843 476.14 78.316 479.32 78.7782C481.986 79.1652 484.976 79.0542 487.838 78.9135C488.7 78.8676 489.505 78.6738 490.33 78.5479L490.505 78.5217C492.353 78.2449 494.216 77.966 495.992 77.6241C496.779 77.4738 497.844 77.469 498.798 77.4469C500.119 77.4148 501.459 77.4073 502.78 77.4246C504.029 77.4366 505.259 77.5044 506.489 77.5227C509.274 77.5595 511.733 77.1718 514.196 76.7836L514.501 76.7356C515.216 76.6231 516.115 76.5892 516.922 76.5933C518.813 76.6048 520.686 76.7032 522.558 76.6778C523.42 76.669 524.262 76.4191 525.142 76.3297C526.389 76.2056 527.745 76.0124 528.957 76.0618C530.848 76.1414 532.79 75.7876 534.739 76.1819C535.824 76.4058 537.53 76.3265 538.962 76.3118C541.182 76.2891 543.402 76.155 545.622 76.157C547.274 76.1586 548.741 76.0199 550.336 75.8675C552.335 75.6739 554.631 75.873 556.797 75.9188C557.697 75.9344 558.56 76.0245 559.46 76.0462C561.075 76.0853 562.709 76.1489 564.324 76.1015C565.407 76.0718 566.617 75.9481 567.459 75.7292C568.648 75.4202 569.619 75.1876 571.017 75.5381C571.293 75.6095 572.174 75.5881 572.229 75.5443C572.738 75.0814 573.877 75.1996 574.867 75.1462C578.078 74.9834 581.25 74.7221 584.461 74.6336C589.213 74.5045 593.985 74.4741 598.738 74.4316C601.105 74.4135 603.473 74.4388 605.841 74.4702C608.888 74.5193 611.588 74.702 614.128 75.449C615.73 75.9211 618.831 75.8461 621.291 75.9507C622.448 76.0007 623.658 75.9017 624.851 75.8586C626.117 75.8147 627.383 75.7646 628.63 75.7024C629.235 75.6714 629.84 75.5787 630.427 75.5912C634.062 75.6529 637.679 75.7828 641.313 75.7951C643.974 75.8049 646.653 75.66 649.331 75.583C649.405 75.5823 649.46 75.5694 649.515 75.5688C653.149 75.6058 656.593 74.9335 660.044 74.9847C663.274 75.032 666.17 74.6684 669.216 74.5506C671.289 74.4675 673.416 74.285 675.34 74.0055C678.364 73.5664 681.411 73.6526 684.495 73.621C687.339 73.5919 690.201 73.5007 693.045 73.3912C695.705 73.2897 698.346 73.1514 700.988 72.9944C701.997 72.9284 703.023 72.8128 703.902 72.643C706.119 72.2183 708.338 72.0904 710.908 72.1012C715.606 72.1211 720.49 72.3246 724.98 71.5922C727.471 71.1832 730.518 71.1891 732.399 70.2484C732.983 69.9579 735.186 70.0219 736.672 69.9387C737.131 69.9092 737.608 69.9352 738.085 69.9365C740.104 69.9344 742.105 69.9634 744.105 69.9182C745.316 69.8872 746.6 69.806 747.718 69.64C748.946 69.4604 749.826 69.4019 751.095 69.6486C752.253 69.878 753.923 69.799 755.173 69.9965C757.177 70.3161 758.954 70.0505 760.529 69.7499C763.039 69.2665 765.588 69.1044 768.379 69.1562C769.296 69.1715 770.249 68.9948 771.184 68.9048C772.687 68.7533 774.154 68.5528 775.676 68.463C777.492 68.3516 779.032 68.1936 780.256 67.6554C780.877 67.3831 782.087 67.2161 783.114 67.1128C786.579 66.7619 790.025 66.3555 793.547 66.1834C796.299 66.0501 799.164 66.231 801.973 66.295C803.221 66.3255 804.489 66.5104 805.682 66.4487C809.919 66.2321 813.977 66.4565 818.145 66.624C820.495 66.7174 823.12 66.7586 825.575 66.2758C828.029 65.793 830.819 65.8015 833.519 66.0583C835.467 66.2487 837.414 66.4452 839.307 66.6793C841.457 66.9418 843.437 66.6927 845.528 66.5414C848.462 66.3381 851.189 65.6361 854.386 65.9744C854.68 66.0085 855.194 65.9785 855.432 65.9081C857.829 65.1785 859.944 65.6516 862.314 65.9118C864.06 66.1103 866.009 66.4552 868.061 66.0631C868.463 65.9848 869.014 65.9606 869.491 65.9619C872.262 65.9706 874.923 65.863 877.525 65.4529C878.551 65.2878 879.928 65.3541 881.139 65.3664C883.911 65.3936 886.684 65.5508 889.436 65.4669C891.638 65.4011 893.763 65.0453 895.945 64.8374L895.976 64.8346C897.597 64.6828 899.178 64.5348 900.084 63.9602C900.248 63.8472 901.019 63.8269 901.532 63.7722C902.1 63.7045 902.853 63.7092 903.218 63.5817C904.645 63.0724 906.445 63.19 908.06 63.2415C910.484 63.3218 912.836 63.6316 915.259 63.6439C917.351 63.6534 919.515 63.4333 921.587 63.2451C924.465 62.9868 927.288 62.661 930.149 62.3658C930.442 62.3381 930.901 62.3457 930.992 62.2891C931.739 61.7805 932.971 61.9967 934.036 62.0106C935.321 62.0283 936.662 62.1692 937.854 62.0766C939.908 61.9133 941.85 61.6027 943.848 61.3596C945.04 61.2176 946.25 61.0877 947.46 60.9516C949.476 60.7206 951.493 60.4959 953.509 60.265C955.452 60.041 957.414 59.823 959.339 59.5806C960.053 59.4867 960.768 59.3743 961.427 59.2315C962.581 58.9846 963.586 58.5662 964.815 58.467C968.226 58.1847 971.711 57.9944 975.178 57.8352C976.792 57.7568 978.463 57.8386 980.115 57.8402C980.409 57.8434 980.739 57.8215 980.995 57.7818C984.037 57.2991 986.61 57.5944 987.904 58.5706C988.034 58.6806 988.329 58.8569 988.476 58.8492C990.971 58.7 993.343 59.2013 996.019 58.7967C998.053 58.4914 1000.53 58.5649 1002.79 58.3996C1004.03 58.3126 1005.19 58.0472 1006.43 57.9355L1006.65 57.9156C1008.14 57.7756 1009.68 57.6312 1011.19 57.6394C1012.58 57.6499 1013.92 57.8959 1015.34 57.9803C1016.09 58.0254 1016.92 57.9862 1017.72 57.9483L1017.85 57.9422C1018.97 57.8936 1020.09 57.7709 1021.21 57.7408C1022.67 57.7011 1023.76 57.5292 1024.91 57.1711C1026.19 56.7683 1027.97 56.4966 1029.65 56.2876C1032.08 55.9882 1034.58 55.7621 1037.07 55.5368L1037.68 55.4817C1038.21 55.4332 1038.89 55.4997 1039.46 55.5556L1039.46 55.5562C1041.17 55.7119 1042.79 55.7077 1044.62 55.6209C1047.58 55.4731 1050.66 55.59 1053.25 56.2004C1054.58 56.5084 1055.88 56.4889 1057.37 56.2386C1059.66 55.8503 1061.71 55.7674 1064.14 56.3362C1066.27 56.84 1069.16 56.9898 1072 56.7937C1074.16 56.6479 1076.29 56.2427 1078.55 56.64C1078.84 56.6927 1079.36 56.6874 1079.63 56.6289C1082.43 56.0498 1084.9 56.6739 1087.53 56.7645C1088.43 56.7924 1089.34 56.7768 1090.26 56.7798C1094.17 56.783 1098.12 56.7302 1102.01 56.8079C1103.75 56.8395 1105.57 57.0435 1107.1 57.3247C1109.08 57.694 1110.99 57.3776 1112.91 57.3578C1115.28 57.3336 1117.63 57.1735 1120 57.0936C1120.46 57.0765 1121.01 57.0894 1121.39 57.1659C1124.76 57.824 1128.02 57.5061 1131.43 57.063C1133.37 56.8081 1135.59 56.8101 1137.65 56.653C1139.87 56.4818 1142.58 56.4602 1144.14 56.0052C1147.21 55.0955 1150.39 55.1124 1153.86 55.2872C1156.92 55.4413 1159.97 55.6018 1163.04 55.7435C1163.74 55.7796 1164.56 55.8083 1165.2 55.7213C1168.08 55.3393 1170.95 55.4399 1173.85 55.5771C1175.02 55.6269 1176.34 55.6319 1177.43 55.491C1179.35 55.2424 1180.93 55.4118 1182.69 55.6225L1183.09 55.6691C1185.06 55.9024 1187.18 56.1544 1189.16 56.082C1191.51 55.996 1193.36 56.144 1195.49 56.3881C1199.89 56.8935 1204.41 57.3049 1208.94 57.6418C1210.6 57.7609 1212.48 57.5622 1214.26 57.5007C1216.65 57.4144 1218.82 57.5716 1220.91 57.9583C1221.96 58.1516 1223.28 58.2123 1224.51 58.2553C1227.49 58.3547 1230.37 58.5045 1232.87 59.085C1233.2 59.1587 1233.72 59.1521 1234.17 59.1461L1234.34 59.1441C1235.35 59.1276 1236.47 58.9801 1237.33 59.0826C1240.07 59.4008 1242.72 59.8066 1245.4 60.1811C1245.51 60.1985 1245.62 60.2221 1245.73 60.2272C1249.84 60.4201 1253.67 61.0921 1258.07 60.8553C1259.94 60.7557 1261.91 60.9582 1263.83 61.0126C1264.31 61.0263 1264.79 60.9905 1265.27 60.9856C1267.05 60.9797 1268.86 60.8993 1270.59 60.9929C1272.48 61.0911 1274.28 61.3447 1276.12 61.5362C1279.57 61.8842 1283.03 62.2013 1286.66 62.2754C1286.73 62.2747 1286.79 62.2926 1286.84 62.2859C1290.73 61.8936 1293.68 62.7972 1297.11 63.0341C1297.3 63.0446 1297.46 63.0677 1297.64 63.0658C1300.54 63.0794 1303.44 63.0682 1306.34 63.1189C1307.98 63.1454 1309.56 63.2901 1311.17 63.3601C1314.2 63.4836 1317.18 63.8057 1320.32 63.5447C1320.65 63.5166 1321.09 63.5244 1321.38 63.5771C1323.04 63.8817 1324.5 63.7987 1326.3 63.5391C1329.3 63.1001 1332.46 62.9379 1335.53 63.5496C1336.17 63.6749 1337.24 63.6099 1338.09 63.5584L1338.17 63.5535C1339.82 63.4562 1341.46 63.1983 1343.02 63.6522C1343.26 63.7178 1344.05 63.5613 1344.58 63.5373C1345.17 63.5127 1345.95 63.4366 1346.29 63.5322C1347.96 64.016 1349.53 64.5442 1351.13 65.0596C1352.36 65.4613 1355.28 65.6169 1356.78 65.3418C1357.13 65.2764 1357.64 65.1536 1357.66 65.0483C1357.82 64.4282 1359.44 64.4735 1360.54 64.2891C1362.94 63.8873 1365.49 64.0219 1367.98 63.9593C1369.69 63.917 1371.38 63.7575 1373.07 63.7526C1374.26 63.7465 1375.56 63.8321 1376.59 64.0195C1378.78 64.4176 1380.73 64.9975 1382.99 65.3392C1384.7 65.6 1386.78 65.5911 1388.67 65.7387L1388.96 65.761C1389.8 65.8257 1390.78 65.9004 1391.24 66.0896C1392.97 66.7954 1395.3 66.7715 1397.71 66.8149C1399.78 66.8493 1401.84 67.0199 1403.93 67.0727C1405.42 67.107 1406.92 67.0483 1408.43 67.0328C1409.05 67.0264 1409.88 66.919 1410.3 67.0137C1413.39 67.7179 1416.86 67.7071 1420.42 67.6274L1420.9 67.6167C1421.88 67.5945 1422.87 67.5721 1423.83 67.6048C1427.62 67.733 1431.36 67.7874 1435.01 67.2615C1435.12 67.2418 1435.25 67.2467 1435.37 67.2392Z" fill="#53D6FF"/>
</svg>
